<svg width="24" height="24" xmlns="http://www.w3.org/2000/svg">

 <g>
  <title>background</title>
  <rect fill="none" id="canvas_background" height="402" width="582" y="-1" x="-1"/>
 </g>
 <g>
  <title>Layer 1</title>
  <path stroke-opacity="0" id="svg_2" d="m11.98141,21.75591c-16.54253,-10.92922 -8.84746,-18.14102 -8.85877,-18.15001c5.55027,-3.81996 8.85877,0.90117 8.84746,0.89218c0.01131,0.00899 4.24508,-4.31496 8.55007,-1.22675c0.37376,0.10784 9.34205,8.03862 -8.53876,18.48458z" stroke-width="1.5" stroke="#ffffff" fill="#ff0000"/>
  <path fill="#ff0000" id="svg_1" d="m17,1a6.98,6.98 0 0 0 -5,2.1a7,7 0 0 0 -12,4.9c0,4.16 2,10.12 11.553,14.9a1,1 0 0 0 0.894,0c9.553,-4.78 11.553,-10.74 11.553,-14.9a7.008,7.008 0 0 0 -7,-7zm-5,19.878c-6.637,-3.431 -10,-7.762 -10,-12.878a5,5 0 0 1 9.167,-2.761a1.038,1.038 0 0 0 1.666,0a5,5 0 0 1 9.167,2.761c0,5.116 -3.363,9.447 -10,12.878z" class="cls-1"/>
 </g>
</svg>