<svg width="17" height="17" viewBox="0 0 17 17" fill="none" xmlns="http://www.w3.org/2000/svg">
<path d="M0 5.66667C0 4.16377 0.597022 2.72243 1.65973 1.65973C2.72243 0.597022 4.16377 0 5.66667 0L11.3333 0C12.8362 0 14.2776 0.597022 15.3403 1.65973C16.403 2.72243 17 4.16377 17 5.66667V11.3333C17 12.8362 16.403 14.2776 15.3403 15.3403C14.2776 16.403 12.8362 17 11.3333 17H5.66667C4.16377 17 2.72243 16.403 1.65973 15.3403C0.597022 14.2776 0 12.8362 0 11.3333V5.66667Z" fill="#3984FD"/>
<path d="M3.54163 6.37484C3.54163 6.18698 3.61625 6.00681 3.74909 5.87397C3.88193 5.74113 4.0621 5.6665 4.24996 5.6665H8.49996C9.06354 5.6665 9.60405 5.89039 10.0026 6.2889C10.4011 6.68742 10.625 7.22792 10.625 7.7915V10.6248C10.625 10.8127 10.5503 10.9929 10.4175 11.1257C10.2847 11.2585 10.1045 11.3332 9.91663 11.3332H5.66663C5.10304 11.3332 4.56254 11.1093 4.16402 10.7108C3.76551 10.3123 3.54163 9.77176 3.54163 9.20817V6.37484Z" fill="white"/>
<path d="M10.9791 8.32442C10.979 7.98102 11.1036 7.64925 11.3298 7.39084L12.5268 6.02234C12.8505 5.65401 13.4583 5.88209 13.4583 6.37226V10.6279C13.4583 11.1188 12.8505 11.3469 12.5275 10.9778L11.3298 9.60934C11.1037 9.35111 10.9792 9.01963 10.9791 8.67646V8.32371V8.32442Z" fill="white"/>
</svg>
