<svg width="32" height="32" xmlns="http://www.w3.org/2000/svg">
 <title/>
 <desc/>

 <g>
  <title>background</title>
  <rect fill="none" id="canvas_background" height="34" width="34" y="-1" x="-1"/>
 </g>
 <g>
  <title>Layer 1</title>
  <path fill="#ffffff" stroke="null" id="Shape" d="m16.119118,19.780937c2.399306,0 4.234069,-1.834763 4.234069,-4.234069l0,-8.468138c0,-2.399306 -1.834763,-4.234069 -4.234069,-4.234069c-2.399306,0 -4.234069,1.834763 -4.234069,4.234069l0,8.468138c0,2.399306 1.834763,4.234069 4.234069,4.234069l0,0zm7.480188,-4.234069c0,4.234069 -3.528391,7.197917 -7.480188,7.197917c-3.951798,0 -7.480188,-2.963848 -7.480188,-7.197917l-2.399306,0c0,4.798611 3.810662,8.750409 8.468138,9.456087l0,4.657476l2.822713,0l0,-4.657476c4.657476,-0.705678 8.468138,-4.657476 8.468138,-9.456087l-2.399306,0l0,0z"/>
 </g>
</svg>