<svg width="21" height="21" xmlns="http://www.w3.org/2000/svg">
 <title/>
 <desc/>

 <g>
  <title>background</title>
  <rect fill="none" id="canvas_background" height="23" width="23" y="-1" x="-1"/>
 </g>
 <g>
  <title>Layer 1</title>
  <path stroke="null" fill="#ffffff" id="Shape" d="m17.194644,9.863143l-1.667601,0c0,0.686659 -0.196188,1.373318 -0.392377,1.961883l1.17713,1.17713c0.588565,-0.882847 0.882847,-1.961883 0.882847,-3.139013l0,0z"/>
  <path stroke="null" fill="#ffffff" id="Shape" d="m12.970801,9.634309l0,-0.179628l0,-5.388836c0,-1.526837 -1.167581,-2.694418 -2.694418,-2.694418c-1.526837,0 -2.694418,1.167581 -2.694418,2.694418l0,0.179628l5.388836,5.388836l0,0z"/>
  <path stroke="null" fill="#ffffff" id="Shape" d="m2.829738,1.468102l-1.292861,1.292861l5.967052,5.967052l0,0.696156c0,1.690665 1.292861,2.983526 2.983526,2.983526c0.198902,0 0.397803,0 0.696156,-0.099451l1.690665,1.690665c-0.696156,0.298353 -1.491763,0.497254 -2.28737,0.497254c-2.784624,0 -5.270896,-2.088468 -5.270896,-5.071995l-1.790116,0c0,3.38133 2.685174,6.165954 5.967052,6.663208l0,3.281879l1.989017,0l0,-3.281879c0.895058,-0.099451 1.790116,-0.497254 2.486272,-0.895058l4.176937,4.176937l1.292861,-1.292861l-16.608296,-16.608296l0,0z"/>
 </g>
</svg>