<svg viewBox="0 0 128 128" xml:space="preserve" xmlns="http://www.w3.org/2000/svg" enable-background="new 0 0 128 128"><circle cx="64" cy="64" r="64" fill="#44bd93" class="fill-000000"></circle><path d="M77.4 75.3c-2-.3-3.4-1.9-3.4-3.9v-5.8c2.1-2.3 3.5-5.3 3.8-8.7l.2-3.2c1.1-.6 2.2-2 2.7-3.8.7-2.5.1-4.7-1.5-4.9h-.7l.4-5.9c.7-8.2-5.6-15.1-13.6-15.1h-2.5c-8 0-14.3 6.9-13.8 15.1l.4 6c-.2-.1-.4-.1-.6-.1-1.6.2-2.2 2.4-1.5 4.9.5 1.9 1.7 3.3 2.8 3.9l.2 3.1c.2 3.4 1.6 6.4 3.7 8.7v5.8c0 2-1.4 3.6-3.4 3.9C41.8 76.8 27 83.2 27 90v14h74V90c0-6.8-14.8-13.2-23.6-14.7z" fill="#ffffff" class="fill-ffffff"></path></svg>