<svg viewBox="0 0 512 512" xml:space="preserve" xmlns="http://www.w3.org/2000/svg" enable-background="new 0 0 512 512"><path d="M157.407 46.168v35.32h246.771a4.686 4.686 0 0 1 4.686 4.686V421.14h35.532V46.168H157.407z" fill-rule="evenodd" clip-rule="evenodd" fill="#ffffff" class="fill-000000"></path><path d="M67.604 90.86v374.972h331.89V90.86H67.604zm291.673 303.411H108.265a4.687 4.687 0 0 1 0-9.372h251.013a4.686 4.686 0 1 1-.001 9.372zm0-35.76H108.265a4.687 4.687 0 0 1 0-9.372h251.013a4.686 4.686 0 1 1-.001 9.372zm0-35.755H108.265a4.687 4.687 0 0 1 0-9.372h251.013a4.686 4.686 0 1 1-.001 9.372zm-98.785-152.39h98.785a4.686 4.686 0 0 1 0 9.372h-98.785a4.685 4.685 0 1 1 0-9.372zm0 35.753h98.785a4.686 4.686 0 0 1 0 9.372h-98.785a4.685 4.685 0 1 1 0-9.372zm0 35.756h98.785a4.686 4.686 0 0 1 0 9.372h-98.785a4.686 4.686 0 0 1 0-9.372zm0 35.754h98.785a4.686 4.686 0 0 1 0 9.371h-98.785a4.686 4.686 0 0 1 0-9.371zm-31.238-30.369v35.05a4.685 4.685 0 0 1-4.686 4.685H98.846a4.686 4.686 0 0 1-4.686-4.685v-34.777c0-17.907 14.625-32.476 32.603-32.476h70.16c17.827-.001 32.331 14.445 32.331 32.203zm-26.95-88.646c0 22.298-18.217 40.44-40.608 40.44-22.385 0-40.597-18.142-40.597-40.44 0-22.297 18.211-40.438 40.597-40.438 22.391 0 40.608 18.141 40.608 40.438z" fill-rule="evenodd" clip-rule="evenodd" fill="#ffffff" class="fill-000000"></path><path d="M126.763 224.427c-12.81 0-23.232 10.365-23.232 23.105v30.092h116.352V247.26c0-12.59-10.3-22.833-22.96-22.833h-70.16zm43.923 31.067h-17.964v-17.876h17.964v17.876zM161.695 189.683c17.225 0 31.237-13.938 31.237-31.069 0-17.13-14.013-31.067-31.237-31.067-17.218 0-31.226 13.937-31.226 31.067 0 17.132 14.009 31.069 31.226 31.069z" fill-rule="evenodd" clip-rule="evenodd" fill="#ffffff" class="fill-000000"></path></svg>