<svg width="21" height="21" xmlns="http://www.w3.org/2000/svg">
 <title/>
 <desc/>

 <g>
  <title>background</title>
  <rect fill="none" id="canvas_background" height="402" width="582" y="-1" x="-1"/>
 </g>
 <g>
  <title>Layer 1</title>
  <path stroke="null" fill="#ffffff" id="Shape" d="m19.714461,4.887125l-4.0903,4.0903l0,-3.579012c0,-0.613545 -0.40903,-1.022575 -1.022575,-1.022575l-6.339964,0l11.452839,11.452839l0,-10.941551l0,0zm-18.099575,-4.601587l-1.329347,1.329347l2.760952,2.760952l-0.715802,0c-0.613545,0 -1.022575,0.40903 -1.022575,1.022575l0,10.225749c0,0.613545 0.40903,1.022575 1.022575,1.022575l12.270899,0c0.204515,0 0.40903,-0.102257 0.511287,-0.204515l3.27224,3.27224l1.329347,-1.329347l-18.099575,-18.099575l0,0z"/>
 </g>
</svg>